<svg version="1.2" xmlns="http://www.w3.org/2000/svg" viewBox="0 0 310 64" width="310" height="64"><style>.a{fill:#fff}.b{fill:#d9d9d9}</style><path class="a" d="m4.8 7.2v16.8h1.8v-15.3h10.6v15.3h1.8v-16.8zm24.6 16.9c3.7 0 6.4-2.7 6.4-6.4 0-3.8-2.7-6.4-6.4-6.4-3.7 0-6.5 2.6-6.5 6.4 0 3.7 2.8 6.4 6.5 6.4zm0-1.5c-2.7 0-4.7-2-4.7-4.9 0-3 2-4.9 4.7-4.9 2.7 0 4.6 1.9 4.6 4.9 0 2.9-1.9 4.9-4.6 4.9zm11-11.2l-0.2 4.5c-0.2 3.3-0.3 6.7-2.4 6.7-0.2 0-0.4 0-0.6-0.1l-0.2 1.5c0.5 0.1 0.9 0.2 1.3 0.2 2.7 0 3.2-3.8 3.5-8.2l0.1-3.1h6.1v11.1h1.7v-12.6zm23.1 0l-4.7 10.7-4.8-10.7h-1.8l5.7 12.6-0.6 1.2c-0.7 1.6-1.5 2.1-2.6 2.1-0.9 0-1.7-0.3-2.3-0.9l-0.8 1.2c0.8 0.8 1.9 1.2 3.1 1.2 1.8 0 3.1-0.8 4.2-3.3l6.3-14.1zm12.2 0v6c-1.5 0.6-2.8 0.9-4 0.9-2.1 0-3.5-0.9-3.5-2.9v-4h-1.7v4.1c0 2.9 1.9 4.2 4.9 4.2 1.4 0 2.8-0.3 4.3-1v5.3h1.7v-12.6zm10.9-0.1c-2 0-3.9 0.6-5.2 1.7l0.8 1.3c1-1 2.6-1.5 4.2-1.5 2.3 0 3.6 1.1 3.6 3.3v0.8h-4c-3.7 0-4.9 1.6-4.9 3.5 0 2.2 1.7 3.7 4.6 3.7 2.1 0 3.6-0.8 4.3-2.1v2h1.7v-7.8c0-3.3-1.9-4.9-5.1-4.9zm-0.6 11.5c-2.1 0-3.2-0.9-3.2-2.4 0-1.3 0.8-2.3 3.2-2.3h4v2.1c-0.7 1.7-2.1 2.6-4 2.6zm21.3-5.1c0-3.8-2.6-6.4-6.2-6.4-3.5 0-6.1 2.6-6.1 6.4 0 3.7 2.7 6.4 6.6 6.4 2 0 3.7-0.7 4.9-2l-1-1.1c-0.9 1.1-2.3 1.6-3.8 1.6-2.8 0-4.8-1.7-5-4.4h10.5c0-0.2 0.1-0.4 0.1-0.5zm-6.2-5c2.5 0 4.3 1.8 4.5 4.2h-8.9c0.2-2.4 2-4.2 4.4-4.2zm22.5-1.3l-5.5 9.1-5.3-9.1h-1.8v12.6h1.6v-10l5.1 8.5h0.8l5.1-8.5v10h1.5v-12.6zm12.8 12.6h1.5l8.4-10v10h1.7v-12.6h-1.5l-8.4 10v-10h-1.7zm22.4-6.6c1.4-0.5 2.4-1.5 2.4-2.8 0-2.1-2.2-3.4-5.1-3.4-1.5 0-3.1 0.4-4.7 1.2l0.5 1.3c1.4-0.7 2.8-1 4.1-1 2 0 3.5 0.7 3.5 2.1 0 1.3-1.3 2-3.2 2h-2.1v1.3h2.2c2.1 0 3.4 0.8 3.4 2.1 0 1.5-1.7 2.5-4 2.5-1.5 0-3.1-0.5-4.3-1.4l-0.6 1.3c1.4 1 3.2 1.5 5 1.5 3.1 0 5.7-1.5 5.7-3.7 0-1.5-1.1-2.6-2.8-3zm11.8 6.7c3.7 0 6.4-2.7 6.4-6.4 0-3.8-2.7-6.4-6.4-6.4-3.7 0-6.4 2.6-6.4 6.4 0 3.7 2.7 6.4 6.4 6.4zm0-1.5c-2.6 0-4.7-2-4.7-4.9 0-3 2.1-5 4.7-5 2.7 0 4.7 2 4.7 5 0 2.9-2 4.9-4.7 4.9zm16.2-10.9c-2.4 0-4.3 1.1-5.3 3.1 0.2-4 1.8-5.8 5.4-6.6l5.3-1.3-0.2-1.5-5.7 1.3c-4.3 1-6.4 3.6-6.4 9.1 0 5.2 2.4 8.3 6.6 8.3 3.8 0 6.4-2.5 6.4-6.3 0-3.6-2.5-6.1-6.1-6.1zm-0.2 11c-2.7 0-4.7-2-4.7-4.8 0-2.8 1.9-4.7 4.7-4.7 2.7 0 4.5 1.9 4.5 4.7 0 2.8-1.9 4.8-4.5 4.8zm16.4-11.4c-2.1 0-3.8 0.9-4.9 2.5v-2.4h-1.6v17.2h1.7v-7c1.1 1.6 2.8 2.5 4.8 2.5 3.6 0 6.3-2.6 6.3-6.4 0-3.9-2.7-6.4-6.3-6.4zm-0.1 11.3c-2.7 0-4.7-2-4.7-4.9 0-3 2-5 4.7-5 2.7 0 4.7 2 4.7 5 0 2.9-2 4.9-4.7 4.9zm14.3-11.3c-1.9 0-3.8 0.6-5.1 1.7l0.8 1.2c1-0.9 2.5-1.5 4.2-1.5 2.3 0 3.6 1.2 3.6 3.4v0.7h-4.1c-3.6 0-4.8 1.7-4.8 3.6 0 2.2 1.7 3.7 4.6 3.7 2.1 0 3.6-0.8 4.3-2.1v2h1.7v-7.8c0-3.3-1.9-4.9-5.2-4.9zm-0.6 11.5c-2 0-3.1-1-3.1-2.4 0-1.3 0.7-2.3 3.2-2.3h4v2.1c-0.7 1.6-2.1 2.6-4.1 2.6zm25.2 1.2h2.1l-4.5-6.5 4.1-6.1h-1.8l-3.7 5.5h-2.8v-5.5h-1.7v5.5h-2.7l-3.7-5.5h-1.9l4.2 6.1-4.5 6.5h2l3.9-5.6h2.7v5.6h1.7v-5.6h2.8zm15.4-6.4c0-3.7-2.5-6.4-6.1-6.4-3.5 0-6.1 2.7-6.1 6.4 0 3.8 2.6 6.5 6.6 6.5 2 0 3.7-0.7 4.8-2.1l-0.9-1.1c-1 1.1-2.3 1.7-3.9 1.7-2.7 0-4.8-1.8-4.9-4.4h10.5c0-0.2 0-0.4 0-0.6zm-6.1-4.9c2.5 0 4.3 1.7 4.5 4.2h-8.9c0.2-2.5 2-4.2 4.4-4.2zm9.9 11.3h1.7v-5.6h8v5.6h1.7v-12.7h-1.7v5.6h-8v-5.6h-1.7zm16.2 0h1.5l8.4-10v10h1.7v-12.6h-1.5l-8.4 10v-10h-1.7zm27.6-6.3c0-3.8-2.6-6.4-6.1-6.4-3.6 0-6.2 2.7-6.2 6.4 0 3.7 2.7 6.4 6.6 6.4 2 0 3.8-0.7 4.9-2l-1-1.1c-0.9 1.1-2.3 1.6-3.8 1.6-2.8 0-4.8-1.7-5-4.4h10.6c0-0.2 0-0.4 0-0.5zm-6.1-4.9c2.4 0 4.2 1.7 4.5 4.2h-9c0.2-2.5 2-4.2 4.5-4.2z"/><path class="b" d="m2.3 54.2v-3.1h4.3v-0.7h-4.3v-3h4.9v-0.8h-5.8v8.4h6v-0.8zm9.3 0.9c1.1 0 2-0.5 2.5-1.3l-0.6-0.4c-0.5 0.6-1.2 0.9-1.9 0.9-1.4 0-2.4-1-2.4-2.5 0-1.4 1-2.4 2.4-2.4 0.7 0 1.4 0.3 1.9 0.9l0.6-0.4c-0.5-0.8-1.4-1.3-2.5-1.3-1.9 0-3.2 1.4-3.2 3.2 0 1.9 1.3 3.3 3.2 3.3zm4.5-6.4l-0.2 2.2c0 1.7-0.1 3.4-1.2 3.4-0.1 0-0.2 0-0.3 0v0.7c0.2 0 0.4 0.1 0.6 0.1 1.3 0 1.6-1.9 1.7-4.1l0.1-1.6h3v5.6h0.9v-6.3zm7 6.3h0.8l4.2-5v5h0.8v-6.3h-0.7l-4.2 5v-5h-0.9zm16 0h1l-2.6-3.3 2.5-3h-1l-2.2 2.7h-1.4v-2.7h-0.9v6.3h0.9v-2.8h1.4zm4.4-6.4c-1 0-1.9 0.3-2.6 0.9l0.4 0.6c0.5-0.4 1.3-0.7 2.1-0.7 1.2 0 1.8 0.6 1.8 1.6v0.4h-2c-1.8 0-2.4 0.8-2.4 1.8 0 1.1 0.9 1.8 2.3 1.8 1 0 1.8-0.4 2.2-1v1h0.8v-3.9c0-1.7-1-2.5-2.6-2.5zm-0.3 5.8c-1 0-1.6-0.5-1.6-1.2 0-0.7 0.4-1.1 1.6-1.1h2v1c-0.3 0.8-1 1.3-2 1.3zm8.4-5.8c-1.1 0-1.9 0.5-2.4 1.3v-1.2h-0.9v8.6h0.9v-3.5c0.5 0.8 1.4 1.2 2.4 1.2 1.8 0 3.1-1.3 3.1-3.2 0-1.9-1.3-3.2-3.1-3.2zm-0.1 5.7c-1.3 0-2.3-1-2.3-2.5 0-1.4 1-2.4 2.3-2.4 1.4 0 2.4 1 2.4 2.4 0 1.5-1 2.5-2.4 2.5zm9.3-5.6h-5.7v0.7h2.4v5.6h0.9v-5.6h2.4zm1.2 6.3h0.8l4.2-5v5h0.8v-6.3h-0.7l-4.2 5v-5h-0.9zm8.3 0h0.8v-2.8h4v2.8h0.8v-6.3h-0.8v2.8h-4v-2.8h-0.8zm12.7 0h1l-2.7-3.2 2.5-3.1h-0.9l-2.2 2.8h-1.5v-2.8h-0.8v6.3h0.8v-2.8h1.5zm2.3 0h0.8l4.2-5v5h0.8v-6.3h-0.7l-4.2 5v-5h-0.9zm16.6-0.8v-5.5h-4.7l-0.1 2.1c0 1.7-0.2 3.4-1.1 3.4h-0.4v2.3h0.8v-1.5h5.7v1.5h0.8v-2.3zm-4-3.4l0.1-1.4h3v4.8h-3.9c0.6-0.4 0.7-1.9 0.8-3.4zm9.2 4.3c1.9 0 3.2-1.4 3.2-3.3 0-1.8-1.3-3.2-3.2-3.2-1.8 0-3.2 1.4-3.2 3.2 0 1.9 1.4 3.3 3.2 3.3zm0-0.8c-1.3 0-2.3-1-2.3-2.5 0-1.4 1-2.4 2.3-2.4 1.4 0 2.3 1 2.3 2.4 0 1.5-0.9 2.5-2.3 2.5zm5.5-5.6l-0.1 2.2c-0.1 1.7-0.1 3.4-1.2 3.4-0.1 0-0.2 0-0.3-0.1l-0.1 0.8c0.3 0 0.5 0.1 0.7 0.1 1.3 0 1.6-1.9 1.7-4.1l0.1-1.6h3v5.6h0.9v-6.3zm11.5 0h-4.5v6.3h0.9v-5.6h3.6zm3.5 6.4c1.9 0 3.2-1.3 3.2-3.2 0-1.9-1.3-3.2-3.2-3.2-1.8 0-3.2 1.3-3.2 3.2 0 1.9 1.4 3.2 3.2 3.2zm0-0.7c-1.3 0-2.3-1-2.3-2.5 0-1.5 1-2.5 2.3-2.5 1.4 0 2.4 1 2.4 2.5 0 1.5-1 2.5-2.4 2.5zm8.2 0.6h0.8v-2.7h4v2.7h0.9v-6.3h-0.9v2.8h-4v-2.8h-0.8zm13.6-3.1c0-1.9-1.3-3.2-3-3.2-1.8 0-3.1 1.3-3.1 3.2 0 1.9 1.3 3.2 3.3 3.2 1 0 1.9-0.4 2.4-1l-0.5-0.6c-0.4 0.6-1.1 0.8-1.9 0.8-1.4 0-2.4-0.8-2.5-2.2h5.3c0-0.1 0-0.1 0-0.2zm-3-2.5c1.2 0 2.1 0.9 2.2 2.1h-4.5c0.1-1.2 1-2.1 2.3-2.1zm9.1-0.7h-5.7v0.8h2.4v5.5h0.9v-5.5h2.4zm3.1 3.3h6v-0.6h-6zm10.4-3.3v6.3h0.8v-5.6h4v5.6h0.9v-6.3zm13.6 3.1c0-1.9-1.3-3.2-3.1-3.2-1.8 0-3.1 1.4-3.1 3.2 0 1.9 1.4 3.2 3.3 3.2 1 0 1.9-0.3 2.5-1l-0.5-0.5c-0.5 0.5-1.2 0.8-1.9 0.8-1.4 0-2.4-0.9-2.5-2.2h5.3c0-0.1 0-0.2 0-0.3zm-3.1-2.4c1.3 0 2.2 0.8 2.3 2.1h-4.5c0.1-1.3 1-2.1 2.2-2.1zm8.2-0.8c-1 0-1.9 0.5-2.4 1.3v-1.2h-0.8v8.6h0.8v-3.5c0.5 0.8 1.4 1.2 2.4 1.2 1.8 0 3.2-1.3 3.2-3.2 0-1.9-1.4-3.2-3.2-3.2zm0 5.7c-1.4 0-2.4-1-2.4-2.5 0-1.4 1-2.4 2.4-2.4 1.3 0 2.3 1 2.3 2.4 0 1.5-1 2.5-2.3 2.5zm10.5-2.5c0-1.9-1.3-3.2-3-3.2-1.8 0-3.1 1.4-3.1 3.2 0 1.9 1.3 3.2 3.3 3.2 1 0 1.9-0.3 2.4-1l-0.4-0.5c-0.5 0.5-1.2 0.8-2 0.8-1.4 0-2.4-0.9-2.5-2.2h5.3c0-0.1 0-0.2 0-0.3zm-3-2.4c1.2 0 2.1 0.8 2.2 2.1h-4.5c0.1-1.3 1-2.1 2.3-2.1zm7.8 2.3c0.7-0.2 1.2-0.8 1.2-1.4 0-1-1.1-1.7-2.5-1.7-0.8 0-1.6 0.2-2.4 0.6l0.3 0.6c0.7-0.3 1.4-0.5 2-0.5 1 0 1.8 0.4 1.8 1.1 0 0.6-0.7 1-1.6 1h-1.1v0.6h1.1c1.1 0 1.7 0.4 1.7 1.1 0 0.8-0.8 1.2-2 1.2-0.7 0-1.5-0.2-2.1-0.7l-0.3 0.7c0.7 0.5 1.6 0.8 2.5 0.8 1.5 0 2.8-0.8 2.8-1.9 0-0.8-0.5-1.3-1.4-1.5zm5.5-3.1c-1 0-1.9 0.3-2.6 0.9l0.4 0.6c0.5-0.4 1.3-0.7 2.1-0.7 1.2 0 1.8 0.6 1.8 1.6v0.4h-2c-1.8 0-2.4 0.8-2.4 1.8 0 1.1 0.9 1.8 2.3 1.8 1 0 1.8-0.4 2.2-1v1h0.8v-3.9c0-1.7-1-2.5-2.6-2.5zm-0.3 5.8c-1 0-1.6-0.5-1.6-1.2 0-0.7 0.4-1.1 1.6-1.1h2v1c-0.3 0.8-1 1.3-2 1.3zm9.6-5.7h-4.5v6.3h0.9v-5.6h3.6zm4.5 0c-1.1 0-1.9 0.4-2.4 1.3v-1.3h-0.9v8.7h0.9v-3.6c0.5 0.9 1.4 1.3 2.4 1.3 1.8 0 3.1-1.3 3.1-3.2 0-1.9-1.3-3.2-3.1-3.2zm-0.1 5.6c-1.3 0-2.3-0.9-2.3-2.4 0-1.5 1-2.5 2.3-2.5 1.4 0 2.4 1 2.4 2.5 0 1.5-1 2.4-2.4 2.4zm9.4-5.6l-2.4 5.4-2.3-5.4h-0.9l2.8 6.3-0.3 0.6c-0.3 0.8-0.7 1.1-1.3 1.1-0.4 0-0.8-0.2-1.1-0.5l-0.4 0.6c0.3 0.4 0.9 0.6 1.5 0.6 0.9 0 1.6-0.4 2.1-1.6l3.2-7.1zm5 3c0.8-0.2 1.3-0.7 1.3-1.4 0-1-1.2-1.6-2.6-1.6-0.8 0-1.6 0.1-2.3 0.5l0.2 0.7c0.7-0.3 1.4-0.5 2-0.5 1 0 1.8 0.4 1.8 1.1 0 0.6-0.7 1-1.6 1h-1v0.6h1.1c1 0 1.7 0.4 1.7 1.1 0 0.7-0.9 1.2-2 1.2-0.8 0-1.6-0.3-2.2-0.7l-0.3 0.6c0.7 0.5 1.6 0.8 2.5 0.8 1.6 0 2.8-0.7 2.8-1.9 0-0.7-0.5-1.2-1.4-1.5zm3.4 3.3h0.7l4.2-5v5h0.9v-6.3h-0.8l-4.2 5v-5h-0.8zm14 0.1c1.1 0 2-0.4 2.5-1.3l-0.7-0.4c-0.4 0.6-1.1 0.9-1.8 0.9-1.4 0-2.4-0.9-2.4-2.4 0-1.5 1-2.5 2.4-2.5 0.7 0 1.4 0.3 1.8 0.9l0.7-0.4c-0.5-0.8-1.4-1.2-2.5-1.2-1.9 0-3.2 1.3-3.2 3.2 0 1.9 1.3 3.2 3.2 3.2zm8.4-6.4h-5.6v0.8h2.4v5.5h0.9v-5.5h2.3zm4.5-0.1c-1 0-1.9 0.5-2.4 1.3v-1.2h-0.8v8.6h0.8v-3.5c0.6 0.8 1.4 1.2 2.4 1.2 1.8 0 3.2-1.3 3.2-3.2 0-1.9-1.4-3.2-3.2-3.2zm0 5.7c-1.4 0-2.4-1-2.4-2.5 0-1.4 1-2.4 2.4-2.4 1.3 0 2.3 1 2.3 2.4 0 1.5-1 2.5-2.3 2.5zm7.1-5.7c-1 0-1.9 0.3-2.5 0.9l0.4 0.6c0.5-0.4 1.2-0.7 2.1-0.7 1.1 0 1.7 0.6 1.7 1.6v0.4h-2c-1.8 0-2.4 0.8-2.4 1.8 0 1.1 0.9 1.8 2.3 1.8 1.1 0 1.8-0.4 2.2-1v1h0.8v-3.9c0-1.7-0.9-2.5-2.6-2.5zm-0.3 5.8c-1 0-1.6-0.5-1.6-1.2 0-0.7 0.4-1.1 1.7-1.1h1.9v1c-0.3 0.8-1 1.3-2 1.3zm5.2 0.6h0.8v-2.8h4v2.8h0.8v-6.3h-0.8v2.8h-4v-2.8h-0.8zm8.1 0h0.7l4.2-5v5h0.9v-6.3h-0.8l-4.2 5v-5h-0.8zm13.8-0.8v-5.6h-0.9v5.6h-3.8v-5.6h-0.9v6.4h5.8v1.5h0.8v-2.3zm7.2-5.6l-2.4 5.4-2.4-5.4h-0.9l2.9 6.3-0.3 0.7c-0.4 0.7-0.8 1-1.3 1-0.5 0-0.9-0.2-1.2-0.5l-0.4 0.7c0.4 0.4 1 0.5 1.6 0.5 0.9 0 1.5-0.4 2.1-1.6l3.1-7.1z"/></svg>